<?xml version="1.0" encoding="UTF-8" standalone="no"?>
<svg
   xmlns:dc="http://purl.org/dc/elements/1.1/"
   xmlns:cc="http://creativecommons.org/ns#"
   xmlns:rdf="http://www.w3.org/1999/02/22-rdf-syntax-ns#"
   xmlns:svg="http://www.w3.org/2000/svg"
   xmlns="http://www.w3.org/2000/svg"
   xmlns:sodipodi="http://sodipodi.sourceforge.net/DTD/sodipodi-0.dtd"
   xmlns:inkscape="http://www.inkscape.org/namespaces/inkscape"
   width="207.32941pt"
   height="230.37067pt"
   viewBox="0 0 207.32941 230.37067"
   version="1.1"
   id="svg869"
   sodipodi:docname="rx.svg"
   inkscape:version="1.0.1 (3bc2e813f5, 2020-09-07)">
  <metadata
     id="metadata875">
    <rdf:RDF>
      <cc:Work
         rdf:about="">
        <dc:format>image/svg+xml</dc:format>
        <dc:type
           rdf:resource="http://purl.org/dc/dcmitype/StillImage" />
      </cc:Work>
    </rdf:RDF>
  </metadata>
  <defs
     id="defs873" />
  <sodipodi:namedview
     pagecolor="#ffffff"
     bordercolor="#666666"
     borderopacity="1"
     objecttolerance="10"
     gridtolerance="10"
     guidetolerance="10"
     inkscape:pageopacity="0"
     inkscape:pageshadow="2"
     inkscape:window-width="1920"
     inkscape:window-height="1009"
     id="namedview871"
     showgrid="false"
     inkscape:zoom="2.5872532"
     inkscape:cx="22.5083"
     inkscape:cy="213.06394"
     inkscape:window-x="-8"
     inkscape:window-y="-8"
     inkscape:window-maximized="1"
     inkscape:current-layer="svg869" />
  <g
     id="g929"
     transform="matrix(0.25933681,0,0,0.25933681,-7.9325873,-10.535084)">
    <g
       id="#f7f7f7ff" />
    <g
       id="#4caf50ff">
      <path
         fill="#4caf50"
         opacity="1"
         d="m 333.5,45.71 c 24.09,-2.41 48.27,-4.11 72.48,-4.52 21.34,-1.17 42.73,-0.27 64.06,0.39 81.92,3.66 163.33,16.85 242.57,37.83 10.83,3.07 21.92,5.47 32.24,10.07 12.93,5.74 25.33,13.3 35.43,23.25 0.94,1.6 1.98,3.17 3.32,4.49 19.53,19.57 32.2,45.58 36.61,72.8 1.61,9.6 2.1,19.35 3.58,28.97 l 0.98,1.37 c 0.1,0.13 0.29,0.39 0.39,0.52 2,36.38 5,72.71 4.84,109.17 0.94,82.15 -11.91,164.87 -41.21,241.79 -22.54,59.58 -55.02,115.32 -95.34,164.62 -54.83,67.02 -123.55,122.33 -199.72,163.34 -20.57,10.9 -41.58,21.12 -63.47,29.13 -29.02,-10.98 -56.81,-25 -83.64,-40.53 C 279.06,849 217.93,798.19 168.25,737.7 119.57,678.64 82.44,610.1 59.82,536.98 43.16,483.55 34.04,427.88 31.38,372.02 28.97,315.61 32.25,259.08 38.64,203.01 39.58,195.3 40.24,187.52 42.05,179.95 51.94,135.34 87.07,97.23 130.96,84.23 197.17,65.5 265.01,52.45 333.5,45.71 m 4.61,66.78 c -59.13,6.08 -117.64,17.45 -175.18,32.29 -5.52,1.52 -11.14,2.73 -16.54,4.64 -22.56,7.72 -39.71,29.01 -42.14,52.78 -4.89,45.77 -7.09,91.82 -6.93,137.86 0.32,63.81 9.72,127.81 30.3,188.3 25.32,75.31 68.3,144.42 123.85,201.14 51.17,52.48 112.26,95.06 178.65,126 29.13,-12.3 56.75,-28 83.2,-45.27 28.11,-18.58 54.7,-39.52 79.19,-62.67 51.86,-48.78 94.28,-107.72 122.98,-172.93 32.43,-72.97 47.27,-153.03 47.86,-232.66 0.25,-40.23 -1.49,-80.47 -5.05,-120.55 -0.76,-6.45 -0.91,-12.98 -2.14,-19.36 -2.26,-12.07 -7.19,-23.75 -14.93,-33.33 -8.42,-10.57 -20.44,-18.11 -33.53,-21.34 -71.26,-18.97 -144.1,-32.6 -217.71,-37.79 -50.58,-3.59 -101.47,-2.54 -151.88,2.89 z"
         id="path905" />
    </g>
    <g
       id="#5d4037ff">
      <path
         fill="#5d4037"
         opacity="1"
         d="m 338.11,112.49 c 50.41,-5.43 101.3,-6.48 151.88,-2.89 73.61,5.19 146.45,18.82 217.71,37.79 13.09,3.23 25.11,10.77 33.53,21.34 7.74,9.58 12.67,21.26 14.93,33.33 1.23,6.38 1.38,12.91 2.14,19.36 3.56,40.08 5.3,80.32 5.05,120.55 -0.59,79.63 -15.43,159.69 -47.86,232.66 -28.7,65.21 -71.12,124.15 -122.98,172.93 -24.49,23.15 -51.08,44.09 -79.19,62.67 -26.45,17.27 -54.07,32.97 -83.2,45.27 C 363.73,824.56 302.64,781.98 251.47,729.5 195.92,672.78 152.94,603.67 127.62,528.36 107.04,467.87 97.64,403.87 97.32,340.06 c -0.16,-46.04 2.04,-92.09 6.93,-137.86 2.43,-23.77 19.58,-45.06 42.14,-52.78 5.4,-1.91 11.02,-3.12 16.54,-4.64 57.54,-14.84 116.05,-26.21 175.18,-32.29"
         id="path908"
         sodipodi:nodetypes="cccccccccccccccccc" />
    </g>
    <g
       id="#81c784ff" />
  </g>
  <g
     id="#56a521ff"
     transform="matrix(0.42810541,0,0,0.42810541,45.116594,45.277986)">
    <g
       id="g943"
       style="opacity:1">
      <path
         style="color:#000000;font-style:normal;font-variant:normal;font-weight:normal;font-stretch:normal;font-size:medium;line-height:normal;font-family:sans-serif;font-variant-ligatures:normal;font-variant-position:normal;font-variant-caps:normal;font-variant-numeric:normal;font-variant-alternates:normal;font-variant-east-asian:normal;font-feature-settings:normal;font-variation-settings:normal;text-indent:0;text-align:start;text-decoration:none;text-decoration-line:none;text-decoration-style:solid;text-decoration-color:#000000;letter-spacing:normal;word-spacing:normal;text-transform:none;writing-mode:lr-tb;direction:ltr;text-orientation:mixed;dominant-baseline:auto;baseline-shift:baseline;text-anchor:start;white-space:normal;shape-padding:0;shape-margin:0;inline-size:0;clip-rule:nonzero;display:inline;overflow:visible;visibility:visible;isolation:auto;mix-blend-mode:normal;color-interpolation:sRGB;color-interpolation-filters:linearRGB;solid-color:#000000;solid-opacity:1;vector-effect:none;fill:#81c784;fill-opacity:1;fill-rule:nonzero;stroke:none;stroke-width:1;stroke-linecap:butt;stroke-linejoin:miter;stroke-miterlimit:4;stroke-dasharray:none;stroke-dashoffset:0;stroke-opacity:1;color-rendering:auto;image-rendering:auto;shape-rendering:auto;text-rendering:auto;enable-background:accumulate;stop-color:#000000;stop-opacity:1"
         d="m 91.49,4.69 c 9.64,-2.19 20.4,-1.42 28.97,3.82 2.94,2.45 6.91,3.8 8.82,7.3 -10.54,0.78 -21.34,1.34 -31.35,5.1 C 57.01,33.5 24.83,69.63 15.32,111.15 9.17,132.29 9.21,155.58 17.11,176.26 10.88,170.04 5.09,163.1 1.65,154.91 0.91,151.63 0.34,147.62 2.9,144.96 6.59,139.72 10.56,133.21 8.63,126.57 6.68,118.35 3.43,110.42 2.55,101.97 3.01,97.25 5,92.7 8.25,89.24 c 1.76,-1.58 3.43,-3.26 5.01,-5.02 3.28,-3.03 7.28,-5.44 9.8,-9.22 4.02,-8.13 1.5,-17.52 3.19,-26.11 1.28,-3.4 2.16,-7.31 5.22,-9.61 6.02,-5.75 14.87,-5.91 22.59,-7.37 10.13,-0.92 17.33,-9.02 23.3,-16.46 4.05,-4.29 8.05,-9.41 14.13,-10.76 z"
         id="path945" />
      <path
         style="color:#000000;font-style:normal;font-variant:normal;font-weight:normal;font-stretch:normal;font-size:medium;line-height:normal;font-family:sans-serif;font-variant-ligatures:normal;font-variant-position:normal;font-variant-caps:normal;font-variant-numeric:normal;font-variant-alternates:normal;font-variant-east-asian:normal;font-feature-settings:normal;font-variation-settings:normal;text-indent:0;text-align:start;text-decoration:none;text-decoration-line:none;text-decoration-style:solid;text-decoration-color:#000000;letter-spacing:normal;word-spacing:normal;text-transform:none;writing-mode:lr-tb;direction:ltr;text-orientation:mixed;dominant-baseline:auto;baseline-shift:baseline;text-anchor:start;white-space:normal;shape-padding:0;shape-margin:0;inline-size:0;clip-rule:nonzero;display:inline;overflow:visible;visibility:visible;isolation:auto;mix-blend-mode:normal;color-interpolation:sRGB;color-interpolation-filters:linearRGB;solid-color:#000000;solid-opacity:1;vector-effect:none;fill:#81c784;fill-opacity:1;fill-rule:nonzero;stroke:none;stroke-width:1;stroke-linecap:butt;stroke-linejoin:miter;stroke-miterlimit:4;stroke-dasharray:none;stroke-dashoffset:0;stroke-opacity:1;color-rendering:auto;image-rendering:auto;shape-rendering:auto;text-rendering:auto;enable-background:accumulate;stop-color:#000000;stop-opacity:1"
         d="M 98.849609,3.1269531 C 96.322622,3.2829409 93.814673,3.6497713 91.378906,4.203125 85.084517,5.6019068 81.022037,10.842904 76.996094,15.107422 l -0.01367,0.01367 -0.01172,0.01563 C 71.01265,22.56183 63.903607,30.514089 54.015625,31.412109 l -0.02539,0.002 -0.02344,0.0039 c -7.640205,1.444909 -16.604676,1.587539 -22.796875,7.46289 -0.0019,0.0014 -0.002,0.0044 -0.0039,0.0059 -3.236038,2.436326 -4.123426,6.475737 -5.384766,9.826172 l -0.01367,0.03906 -0.0078,0.04102 c -1.719292,8.738882 0.757295,18.043189 -3.136719,25.955078 -2.440409,3.642775 -6.379807,6.035452 -9.703125,9.105469 l -0.01563,0.01563 -0.01563,0.01758 c -1.568663,1.747371 -3.2267658,3.413135 -4.9726564,4.980469 l -0.015625,0.01562 -0.015625,0.01563 c -3.3300364,3.54511 -5.3615447,8.195665 -5.8320392,13.023353 l -0.00586,0.0488 0.00586,0.0508 c 0.889799,8.5441 4.1519732,16.4952 6.0898437,24.66407 l 0.00391,0.0117 0.00391,0.0117 c 1.8542589,6.37943 -1.9851978,12.74425 -5.6601562,17.9629 l 0.048828,-0.0586 c -1.3799067,1.43381 -1.91114039,3.24022 -2,5.06445 -0.0888596,1.82424 0.24948532,3.68601 0.6230469,5.3418 l 0.00977,0.043 0.017578,0.041 c 3.4785184,8.2817 9.3144232,15.26781 15.5664062,21.50976 l 0.820313,-0.53125 C 9.7206304,155.51841 9.678458,132.33393 15.800781,111.28906 l 0.0039,-0.0137 0.002,-0.0137 C 25.275929,69.919462 57.342726,33.921274 98.076172,21.388672 l 0.01563,-0.0059 0.01367,-0.0039 C 108.01994,17.654755 118.7689,17.089115 129.31641,16.30856 l 0.77343,-0.05664 -0.37109,-0.681641 C 127.69509,11.862036 123.61863,10.491113 120.7793,8.125 L 120.7519,8.101563 120.7207,8.083985 C 114.18797,4.089641 106.43057,2.6589898 98.849609,3.1269531 Z m 0.05859,1 C 106.31693,3.671479 113.87695,5.0718434 120.19922,8.9375 l -0.0586,-0.042969 c 2.80878,2.340646 6.25039,3.716775 8.18555,6.498047 -10.23602,0.746511 -20.73675,1.362165 -30.542967,5.039063 -0.0073,0.0022 -0.01419,0.0056 -0.02148,0.0078 -0.0025,9.5e-4 -0.0053,0.001 -0.0078,0.002 C 56.661452,33.097127 24.380469,69.351353 14.832048,111.03909 8.8718214,131.54749 8.7789456,154.0474 15.935564,174.29495 10.345537,168.52011 5.2517642,162.1588 2.1347826,154.76175 1.7719553,153.1476 1.4566093,151.37956 1.5371264,149.72659 c 0.08114,-1.66576 0.542563,-3.19373 1.7226562,-4.41992 l 0.027344,-0.0273 0.021484,-0.0312 C 7.0136353,139.98669 11.115115,133.33027 9.109375,126.42969 7.1506559,118.18486 3.9318328,110.29703 3.0546875,101.96875 3.5132231,97.374037 5.4565571,92.944808 8.6152344,89.582031 l -0.03125,0.0293 c 1.7624516,-1.5822 3.4335536,-3.263501 5.0156246,-5.023437 3.228239,-2.982184 7.275905,-5.408974 9.876953,-9.310547 l 0.01758,-0.02734 0.01367,-0.0293 c 4.119645,-8.33152 1.584043,-17.780866 3.230469,-26.203125 1.287784,-3.434221 2.165713,-7.184055 5.03125,-9.33789 l 0.02539,-0.01758 0.01953,-0.02148 C 37.649303,34.067476 46.33515,33.87201 54.105467,32.40821 l 0.04687,-0.0078 c 10.341854,-0.962831 17.618655,-9.186184 23.589844,-16.626953 0.0025,-0.0032 0.0053,-0.0066 0.0078,-0.0098 4.06383,-4.3083 7.996582,-9.2867683 13.847656,-10.5859376 h 0.002 0.002 C 93.98587,4.6360731 96.438703,4.2787628 98.908278,4.1269381 Z"
         id="path947" />
    </g>
    <g
       id="g931"
       style="opacity:1">
      <path
         style="color:#000000;font-style:normal;font-variant:normal;font-weight:normal;font-stretch:normal;font-size:medium;line-height:normal;font-family:sans-serif;font-variant-ligatures:normal;font-variant-position:normal;font-variant-caps:normal;font-variant-numeric:normal;font-variant-alternates:normal;font-variant-east-asian:normal;font-feature-settings:normal;font-variation-settings:normal;text-indent:0;text-align:start;text-decoration:none;text-decoration-line:none;text-decoration-style:solid;text-decoration-color:#000000;letter-spacing:normal;word-spacing:normal;text-transform:none;writing-mode:lr-tb;direction:ltr;text-orientation:mixed;dominant-baseline:auto;baseline-shift:baseline;text-anchor:start;white-space:normal;shape-padding:0;shape-margin:0;inline-size:0;clip-rule:nonzero;display:inline;overflow:visible;visibility:visible;isolation:auto;mix-blend-mode:normal;color-interpolation:sRGB;color-interpolation-filters:linearRGB;solid-color:#000000;solid-opacity:1;vector-effect:none;fill:#81c784;fill-opacity:1;fill-rule:nonzero;stroke:none;stroke-width:1;stroke-linecap:butt;stroke-linejoin:miter;stroke-miterlimit:4;stroke-dasharray:none;stroke-dashoffset:0;stroke-opacity:1;color-rendering:auto;image-rendering:auto;shape-rendering:auto;text-rendering:auto;enable-background:accumulate;stop-color:#000000;stop-opacity:1"
         d="m 150.04,16.83 c 6.58,1.15 13.27,2.19 19.45,4.85 13.88,4.08 26.58,11.33 38.4,19.54 14.73,10.73 28.83,23.7 36.01,40.81 2.03,6.03 2.84,13.05 -0.05,18.93 -3.62,6.43 -10.68,9.92 -17.78,11 -15.8,2.47 -31.91,-0.08 -47.31,-3.79 -5.69,-2.22 -11.78,-3.19 -17.43,-5.49 -4.95,-2.28 -10.31,-3.5 -15.28,-5.73 -4.44,-2.64 -9.66,-3.56 -14.05,-6.3 -2.29,-1.42 -4.81,-2.43 -7.07,-3.9 -1,-6.03 -0.07,-12.22 -0.33,-18.31 -13.15,-0.61 -26.32,2.06 -39.42,0.72 -2.8,-2.52 -4.31,-6.07 -6.21,-9.26 -2.21,-3.67 -3.41,-8.44 -1.63,-12.51 3.99,-5.99 11.18,-8.14 17.53,-10.65 2.15,-1.02 4.34,0.3 6.39,0.91 4.49,1.66 9.19,2.65 13.78,3.99 4.07,1.11 7.92,3.36 12.27,3.06 4.67,-11.35 13.52,-20.1 22.73,-27.87 m 18.7,43.37 c -1.43,3.01 -2.38,7.28 0.7,9.65 2.83,1.58 6.4,0.74 8.91,-1.1 0.89,-2.54 0.73,-5.24 0.23,-7.84 -2.95,-1.92 -6.73,-2.89 -9.84,-0.71 z"
         id="path933" />
      <path
         style="color:#000000;font-style:normal;font-variant:normal;font-weight:normal;font-stretch:normal;font-size:medium;line-height:normal;font-family:sans-serif;font-variant-ligatures:normal;font-variant-position:normal;font-variant-caps:normal;font-variant-numeric:normal;font-variant-alternates:normal;font-variant-east-asian:normal;font-feature-settings:normal;font-variation-settings:normal;text-indent:0;text-align:start;text-decoration:none;text-decoration-line:none;text-decoration-style:solid;text-decoration-color:#000000;letter-spacing:normal;word-spacing:normal;text-transform:none;writing-mode:lr-tb;direction:ltr;text-orientation:mixed;dominant-baseline:auto;baseline-shift:baseline;text-anchor:start;white-space:normal;shape-padding:0;shape-margin:0;inline-size:0;clip-rule:nonzero;display:inline;overflow:visible;visibility:visible;isolation:auto;mix-blend-mode:normal;color-interpolation:sRGB;color-interpolation-filters:linearRGB;solid-color:#000000;solid-opacity:1;vector-effect:none;fill-opacity:1;fill-rule:nonzero;stroke:#81c784;stroke-width:1;stroke-linecap:butt;stroke-linejoin:miter;stroke-miterlimit:4;stroke-dasharray:none;stroke-dashoffset:0;stroke-opacity:1;color-rendering:auto;image-rendering:auto;shape-rendering:auto;text-rendering:auto;enable-background:accumulate;stop-color:#000000;stop-opacity:1"
         d="m 150.12695,16.337891 -0.0879,0.492187 -0.32226,-0.382812 c -9.13874,7.70988 -17.94361,16.433212 -22.69922,27.738281 -4.05346,0.179823 -7.77026,-1.914608 -11.83789,-3.025391 l -0.008,-0.002 c -4.61205,-1.34601 -9.29658,-2.334415 -13.73829,-3.976562 l -0.0156,-0.0059 -0.0156,-0.0059 c -0.977,-0.290636 -2.042848,-0.776275 -3.173674,-1.070185 -1.130827,-0.293909 -2.362404,-0.384528 -3.572266,0.189453 l 0.0293,-0.01367 c -6.320782,2.49845 -13.64868,4.663178 -17.761719,10.83789 l -0.02344,0.03516 -0.01758,0.04102 c -1.870527,4.276993 -0.609303,9.203253 1.658204,12.96875 1.875752,3.149609 3.398013,6.757041 6.304687,9.373047 l 0.121094,0.109375 0.162109,0.01758 c 13.038515,1.333711 26.055495,-1.237007 38.964845,-0.716797 0.19142,5.875924 -0.64675,11.917923 0.34375,17.890625 l 0.0352,0.216797 0.18554,0.121094 c 2.31417,1.505234 4.83591,2.515369 7.07618,3.904297 4.49838,2.807645 9.72465,3.726591 14.06054,6.304687 l 0.0234,0.01563 0.0273,0.01172 c 5.03036,2.257083 10.38841,3.477543 15.27539,5.728523 l 0.01,0.004 0.01,0.004 c 5.72074,2.32879 11.8141,3.30012 17.4375,5.49414 l 0.0313,0.0117 0.0332,0.008 c 15.42647,3.71638 31.60078,6.283 47.5039,3.79687 l -0.002,0.002 c 7.20961,-1.09667 14.42223,-4.64523 18.14063,-11.25 l 0.008,-0.0117 0.006,-0.0137 c 2.9758,-6.054582 2.12882,-13.205506 0.0742,-19.308599 l -0.006,-0.01758 -0.006,-0.01758 C 237.12584,64.593702 222.94585,51.5699 208.18359,40.816406 l -0.004,-0.0039 -0.004,-0.0039 C 196.34755,32.592878 183.61953,25.325717 169.6875,21.220703 l -0.0566,-0.01953 c -6.24122,-2.675454 -12.94955,-3.717763 -19.50391,-4.863281 z m 0.0625,1.029297 c 6.50864,1.13486 13.07364,2.176097 19.10352,4.771484 l 0.0273,0.01172 0.0293,0.0098 c 13.80177,4.057006 26.4533,11.274569 38.24609,19.464844 14.69143,10.701904 28.70662,23.609195 35.83399,40.576172 2.00099,5.949762 2.76948,12.826179 -0.0254,18.525392 -3.52395,6.24663 -10.42482,9.67572 -17.41016,10.73828 v 0.002 h -0.002 c -15.69688,2.45388 -31.74171,-0.0796 -47.11524,-3.78321 l 0.0645,0.0215 c -5.7566,-2.24599 -11.84457,-3.21708 -17.42383,-5.48828 l 0.0215,0.01 c -5.01301,-2.309027 -10.37551,-3.529506 -15.28515,-5.732423 l 0.0508,0.02539 c -4.54411,-2.701904 -9.75745,-3.620614 -14.03907,-6.292969 l -0.002,-0.002 c -2.27344,-1.409732 -4.70149,-2.413768 -6.86133,-3.785156 -0.92288,-5.85675 -0.0433,-11.944662 -0.30273,-18.021484 l -0.0195,-0.457031 -0.45703,-0.01953 c -13.1688,-0.610872 -26.265184,2.013432 -39.203128,0.728516 -2.622642,-2.418877 -4.12256,-5.840476 -6.019531,-9.025391 l -0.002,-0.002 c -2.144691,-3.561923 -3.274488,-8.155496 -1.611242,-12.01 3.872706,-5.774881 10.903146,-7.912029 17.267579,-10.427734 l 0.01367,-0.0059 0.01563,-0.0078 c 0.940138,-0.446019 1.878405,-0.386637 2.892578,-0.123047 1.00416,0.260988 2.047494,0.731615 3.109374,1.050782 0.009,0.0033 0.0184,0.0045 0.0273,0.0078 10e-4,4.17e-4 0.003,0.0015 0.004,0.002 4.52631,1.670031 9.2281,2.660423 13.7832,3.990235 l 0.004,0.002 0.004,0.002 c 3.98175,1.085931 7.89416,3.389371 12.43555,3.076172 l 0.31055,-0.02148 0.11718,-0.287109 c 4.59016,-11.155949 13.2931,-19.808604 22.41797,-27.523437 z m 23.5918,41.154296 c -1.80107,-0.222158 -3.66662,0.104873 -5.32813,1.269532 l -0.10742,0.07617 -0.0566,0.11914 c -0.73591,1.549012 -1.35744,3.421861 -1.39062,5.269531 -0.0332,1.847671 0.56162,3.701578 2.23633,4.990235 l 0.0293,0.02344 0.0312,0.01758 c 3.05213,1.704017 6.81737,0.79599 9.45117,-1.134765 l 0.125,-0.08984 0.0508,-0.146484 c 0.93275,-2.662008 0.75643,-5.455996 0.24804,-8.09961 l -0.0391,-0.208984 -0.17773,-0.117188 c -1.52457,-0.99226 -3.2712,-1.746592 -5.07227,-1.96875 z m -0.12305,0.992188 c 1.53513,0.189355 3.07526,0.844939 4.45508,1.71289 0.44785,2.433462 0.55707,4.900621 -0.21094,7.207032 -2.36488,1.668848 -5.62627,2.393029 -8.17773,0.99414 -1.38338,-1.079202 -1.85529,-2.532938 -1.82617,-4.154296 0.0284,-1.581655 0.57166,-3.279312 1.23633,-4.712891 1.41993,-0.956865 2.95781,-1.239992 4.52343,-1.046875 z"
         id="path935" />
    </g>
    <g
       id="g937"
       style="opacity:1">
      <path
         style="color:#000000;font-style:normal;font-variant:normal;font-weight:normal;font-stretch:normal;font-size:medium;line-height:normal;font-family:sans-serif;font-variant-ligatures:normal;font-variant-position:normal;font-variant-caps:normal;font-variant-numeric:normal;font-variant-alternates:normal;font-variant-east-asian:normal;font-feature-settings:normal;font-variation-settings:normal;text-indent:0;text-align:start;text-decoration:none;text-decoration-line:none;text-decoration-style:solid;text-decoration-color:#000000;letter-spacing:normal;word-spacing:normal;text-transform:none;writing-mode:lr-tb;direction:ltr;text-orientation:mixed;dominant-baseline:auto;baseline-shift:baseline;text-anchor:start;white-space:normal;shape-padding:0;shape-margin:0;inline-size:0;clip-rule:nonzero;display:inline;overflow:visible;visibility:visible;isolation:auto;mix-blend-mode:normal;color-interpolation:sRGB;color-interpolation-filters:linearRGB;solid-color:#000000;solid-opacity:1;vector-effect:none;fill:#81c784;fill-opacity:1;fill-rule:nonzero;stroke:none;stroke-width:1;stroke-linecap:butt;stroke-linejoin:miter;stroke-miterlimit:4;stroke-dasharray:none;stroke-dashoffset:0;stroke-opacity:1;color-rendering:auto;image-rendering:auto;shape-rendering:auto;text-rendering:auto;enable-background:accumulate;stop-color:#000000;stop-opacity:1"
         d="m 25.78,123.56 c 3.1,-5.71 5.86,-11.7 10.44,-16.42 4.76,3.04 9.13,6.61 13.47,10.2 6.91,5.06 13.75,10.21 20.72,15.19 2.55,2.27 6.13,3.79 7.37,7.19 -2.8,13.4 -3.25,27.47 -0.04,40.83 2.5,6.33 3.84,13.26 7.96,18.83 8.29,15.29 22.7,26.15 38.16,33.51 -4.32,-4.92 -9.3,-9.28 -12.84,-14.85 -1.52,-2.81 -3.32,-5.47 -4.72,-8.34 -2.17,-5.13 -3.16,-10.7 -3.27,-16.25 13.78,16.72 31.71,29.94 51.34,39.15 8.65,3.16 17.39,6.6 26.75,6.66 10.5,0.59 21.05,-0.11 31.38,-2.06 4.05,4.22 6.18,9.9 10.33,14.02 2.63,0.6 5.41,0.38 7.96,1.36 -3.15,3.44 -7.66,5 -11.25,7.88 -7.26,3.62 -14.4,7.6 -22.31,9.66 -9.29,3.78 -19.35,5.01 -29.26,5.95 -16.06,0.98 -32.36,0.1 -47.96,-4 -6.56,-2.59 -13.66,-3.76 -19.95,-7.03 C 65.05,250.57 35.78,222.1 21.3,187 l 0.37,-0.29 c 0.21,-0.14 0.62,-0.43 0.83,-0.58 -2.57,-1.55 -2.46,-4.72 -2.95,-7.3 -1.24,-10.29 -1.05,-20.69 -0.32,-31.02 0.33,-4.06 1.62,-7.94 2.59,-11.87 1.1,-4.19 2,-8.49 3.96,-12.38 z"
         id="path939"
         sodipodi:nodetypes="cccccccccccccccccccccccccccc" />
      <path
         style="color:#000000;font-style:normal;font-variant:normal;font-weight:normal;font-stretch:normal;font-size:medium;line-height:normal;font-family:sans-serif;font-variant-ligatures:normal;font-variant-position:normal;font-variant-caps:normal;font-variant-numeric:normal;font-variant-alternates:normal;font-variant-east-asian:normal;font-feature-settings:normal;font-variation-settings:normal;text-indent:0;text-align:start;text-decoration:none;text-decoration-line:none;text-decoration-style:solid;text-decoration-color:#000000;letter-spacing:normal;word-spacing:normal;text-transform:none;writing-mode:lr-tb;direction:ltr;text-orientation:mixed;dominant-baseline:auto;baseline-shift:baseline;text-anchor:start;white-space:normal;shape-padding:0;shape-margin:0;inline-size:0;clip-rule:nonzero;display:inline;overflow:visible;visibility:visible;isolation:auto;mix-blend-mode:normal;color-interpolation:sRGB;color-interpolation-filters:linearRGB;solid-color:#000000;solid-opacity:1;vector-effect:none;fill:#5d4037;fill-opacity:1;fill-rule:nonzero;stroke:#81c784;stroke-opacity:1;color-rendering:auto;image-rendering:auto;shape-rendering:auto;text-rendering:auto;enable-background:accumulate;stop-color:#000000;stop-opacity:1"
         d="m 36.144531,106.49805 -0.283203,0.29297 c -4.657315,4.79967 -7.432069,10.84074 -10.521484,16.53125 l -0.002,0.006 -0.0039,0.008 c -1.998948,3.9673 -2.902372,8.30304 -3.998046,12.47656 v 0.004 l -0.002,0.004 c -0.963633,3.90421 -2.265122,7.80999 -2.601562,11.94922 l -0.002,0.002 v 0.004 c -0.731234,10.34745 -0.923248,20.77948 0.322265,31.11523 l 0.002,0.0156 0.0039,0.0176 c 0.236716,1.24638 0.329808,2.69794 0.703125,4.07422 0.314498,1.15943 0.95777,2.22338 1.966797,3.06054 -0.124974,0.0873 -0.255702,0.18284 -0.335938,0.23633 l -0.01563,0.01 -0.683594,0.53515 0.144532,0.35157 c 14.528779,35.21824 43.876673,63.76702 78.992187,78.29297 0.0076,0.004 0.01587,0.006 0.02344,0.01 0.0054,0.002 0.01024,0.006 0.01563,0.008 6.37349,3.30331 13.47681,4.4747 19.95703,7.03321 l 0.0273,0.0117 0.0293,0.006 c 15.6658,4.1173 32.0185,4.99799 48.11719,4.01563 h 0.01 0.008 c 9.91915,-0.94087 20.02874,-2.17116 29.40039,-5.98438 7.96536,-2.08573 15.11881,-6.07228 22.3457,-9.67578 l 0.0469,-0.0254 0.043,-0.0332 c 3.49931,-2.80725 8.045,-4.37186 11.30468,-7.93164 l 0.4961,-0.54102 -0.68555,-0.26367 c -2.63786,-1.01376 -5.38941,-0.82302 -7.88281,-1.36133 -3.97977,-4.01178 -6.11604,-9.61741 -10.22461,-13.89843 l -0.1875,-0.19532 -0.26563,0.0508 c -10.29045,1.94254 -20.80061,2.64044 -31.25976,2.05274 l -0.0137,-0.002 h -0.0117 c -9.22773,-0.0592 -17.9019,-3.45772 -26.54883,-6.61719 C 135.00821,222.96256 116.75503,210.10331 103.03,193.45 l -0.52772,-1.42516 0.0274,1.43554 c 0.11104,5.6028 1.11121,11.23621 3.31054,16.43555 l 0.006,0.0117 0.006,0.0137 c 1.42067,2.91237 3.22429,5.57657 4.72852,8.35742 l 0.008,0.0156 0.01,0.0156 c 3.02442,4.75878 8.91839,10.5792 12.67786,14.59714 -14.33402,-7.2848 -29.408573,-19.50919 -37.136849,-33.76315 l -0.01563,-0.0312 -0.02148,-0.0293 c -4.021162,-5.43638 -5.367768,-12.28482 -7.876953,-18.6582 -3.186344,-13.26926 -2.742259,-27.26291 0.04492,-40.60156 l 0.0293,-0.13868 -0.04883,-0.13476 c -1.329704,-3.64596 -5.048611,-5.20341 -7.507812,-7.39258 l -0.01953,-0.0176 -0.02148,-0.0156 C 63.737944,127.14789 56.899907,122.00012 49.986328,116.9375 45.651726,113.35211 41.273084,109.77459 36.488281,106.71875 Z m 0.16211,1.3164 c 4.585923,2.96756 8.838719,6.41468 13.064453,9.91016 l 0.01172,0.01 0.01172,0.01 c 6.906421,5.05738 13.747837,10.20852 20.72461,15.19336 l -0.04102,-0.0332 c 2.614177,2.32713 5.99752,3.81319 7.181641,6.90234 -2.777255,13.40188 -3.221959,27.47399 -0.0059,40.85938 l 0.0078,0.0351 0.01367,0.0332 c 2.476624,6.27081 3.81635,13.25562 8.023437,18.94335 l 0.511108,0.32229 c 8.358433,15.41622 22.31112,25.95155 37.8346,33.34177 l 0.5918,-0.78125 c -4.34907,-4.95311 -9.30543,-9.29854 -12.79492,-14.78907 -1.53054,-2.82454 -3.31385,-5.46906 -4.6875,-8.2832 -1.94817,-4.61212 -3.21993,-9.28815 -3.46057,-14.29554 13.69884,16.23338 31.63257,28.83659 50.86486,37.85999 l 0.0195,0.01 0.0215,0.008 c 8.64151,3.1569 17.43626,6.62821 26.91601,6.68946 6.6e-4,0 0.001,-1e-5 0.002,0 10.43007,0.584 20.90521,-0.11655 31.16992,-2.0293 3.85209,4.10663 5.99764,9.6803 10.19141,13.84375 l 0.10156,0.10156 0.13867,0.0312 c 2.41062,0.54995 4.80054,0.54899 6.99609,1.15625 -2.97874,2.84689 -6.99365,4.44568 -10.39843,7.14844 -7.27382,3.62689 -14.38388,7.58609 -22.21289,9.625 l -0.0312,0.008 -0.0312,0.0117 c -9.20291,3.74456 -19.20645,4.97514 -29.10157,5.91406 -10e-4,8e-5 -0.003,-8e-5 -0.004,0 -16.02005,0.97726 -32.26589,0.098 -47.79883,-3.98437 -6.61064,-2.6009 -13.66648,-3.77783 -19.8457,-6.99024 l -0.0195,-0.01 -0.0195,-0.008 C 65.480121,250.20656 36.396962,221.9562 21.921875,187.14648 l 0.02539,-0.0195 0.01172,-0.008 0.01953,-0.0156 c 0.22934,-0.1541 0.608112,-0.42042 0.8125,-0.56641 l 0.61914,-0.44336 -0.652344,-0.39258 c -1.153213,-0.69552 -1.692613,-1.72362 -2.029296,-2.96484 -0.333887,-1.23091 -0.433019,-2.64279 -0.681641,-3.9668 -1.234331,-10.24296 -1.046898,-20.60866 -0.318359,-30.91992 v -0.004 c 0.323903,-3.97739 1.598355,-7.82687 2.574218,-11.77929 l 0.002,-0.006 c 1.103606,-4.20454 2.001733,-8.4645 3.921874,-12.27539 3.038964,-5.59897 5.754869,-11.3811 10.080079,-15.97071 z"
         id="path941"
         sodipodi:nodetypes="ccccccccccccccsccccccccccccccccccccccsccccscccccccccsccccccccccccccccccccccccccccccccccsccccccccccsccccscccccccscccccccc" />
    </g>
    <path
       fill="#56a521"
       opacity="1"
       d="m 169.85,219.48 c 9.6,-0.29 19.02,-2.75 28.27,-5.2 5.18,7.26 9.67,15.04 15.51,21.83 -2.4,0.92 -5.02,0.62 -7.51,0.41 -8,-1.28 -16.36,-2.7 -23.18,-7.4 -4.94,-2.39 -8.93,-6.15 -13.09,-9.64 z"
       id="path861"
       style="fill:#81c784;fill-opacity:1" />
  </g>
  <g
     id="#2d9236ff"
     transform="matrix(0.42810541,0,0,0.42810541,45.116594,45.277986)">
    <path
       fill="#2d9236"
       opacity="1"
       d="m 97.93,20.91 c 10.01,-3.76 20.81,-4.32 31.35,-5.1 6.93,-0.46 13.88,0.19 20.76,1.02 -9.21,7.77 -18.06,16.52 -22.73,27.87 -4.35,0.3 -8.2,-1.95 -12.27,-3.06 -4.59,-1.34 -9.29,-2.33 -13.78,-3.99 -2.05,-0.61 -4.24,-1.93 -6.39,-0.91 -6.35,2.51 -13.54,4.66 -17.53,10.65 -1.78,4.07 -0.58,8.84 1.63,12.51 1.9,3.19 3.41,6.74 6.21,9.26 13.1,1.34 26.27,-1.33 39.42,-0.72 0.26,6.09 -0.67,12.28 0.33,18.31 2.26,1.47 4.78,2.48 7.07,3.9 -14.6,3.37 -28.37,10.65 -38.87,21.39 -2.47,2.91 -5.4,5.47 -7.1,8.97 -4.51,5.33 -5.87,12.34 -8.25,18.71 -1.24,-3.4 -4.82,-4.92 -7.37,-7.19 -6.97,-4.98 -13.81,-10.13 -20.72,-15.19 -4.34,-3.59 -8.71,-7.16 -13.47,-10.2 -4.58,4.72 -7.34,10.71 -10.44,16.42 -1.96,3.89 -2.86,8.19 -3.96,12.38 -0.97,3.93 -2.26,7.81 -2.59,11.87 -0.73,10.33 -0.92,20.73 0.32,31.02 0.49,2.58 0.38,5.75 2.95,7.3 -0.21,0.15 -0.62,0.44 -0.83,0.58 -0.29,-0.02 -0.86,-0.05 -1.15,-0.07 -0.75,-3.59 -2.19,-6.94 -3.41,-10.38 C 9.21,155.58 9.17,132.29 15.32,111.15 24.83,69.63 57.01,33.5 97.93,20.91 Z"
       id="path864" />
    <path
       fill="#2d9236"
       opacity="1"
       d="m 249.06,74.77 c 5.3,5.44 9.38,11.94 12.16,18.99 5.27,15.94 4.32,33.56 -0.99,49.37 -2.23,4.19 -3.67,8.77 -6.06,12.88 -1.96,2.62 -3.62,5.44 -5.13,8.34 9.3,-7.69 16.37,-17.77 21.82,-28.44 2.83,-3.95 4.16,-8.66 6.33,-12.96 2.17,8.61 1.89,17.67 0.87,26.42 -2.14,7.9 -3.2,16.26 -7.18,23.53 -6.8,15.91 -18.45,29.52 -32.7,39.23 -3.49,3.2 -8.55,3.94 -11.93,7.21 7.38,-1.93 15.07,-3.39 21.72,-7.3 9.8,-4.88 18.87,-11.15 27.39,-18 -7.82,23.66 -24.56,43.58 -44.14,58.6 l -0.43,-0.06 c -2.55,-0.98 -5.33,-0.76 -7.96,-1.36 -4.15,-4.12 -6.28,-9.8 -10.33,-14.02 0.42,-0.32 0.81,-0.67 1.13,-1.09 -5.84,-6.79 -10.33,-14.57 -15.51,-21.83 19.22,-7.09 36.87,-18.42 50.86,-33.41 -2.74,1.16 -4.64,3.57 -7.3,4.85 -3.1,1.58 -6.27,3.02 -9.36,4.62 -9.11,3.25 -19,4.22 -28.61,3.14 14.94,-10.19 27.08,-24.15 35.9,-39.88 6.33,-11.36 11.34,-23.58 13.21,-36.53 3.62,-14.05 1.53,-28.96 -3.76,-42.3 z"
       id="path866" />
  </g>
</svg>
